<svg xmlns="http://www.w3.org/2000/svg"  viewBox="0 0 80 80" width="80px" height="80px"><path fill="#dcd5f2" d="M44.5 79.5L44.5 44.5 73.793 44.5 79.5 50.207 79.5 79.5z"/><path fill="#8b75a1" d="M73.586,45L79,50.414V79H45V45H73.586 M74,44H44v36h36V50L74,44L74,44z"/><path fill="#fff" d="M50.5 62.5H73.5V79.5H50.5z"/><path fill="#788b9c" d="M73,63v16H51V63H73 M74,62H50v18h24V62L74,62z"/><path fill="#c2e8ff" d="M54 70H70V72H54zM54 66H70V68H54zM54 74H70V76H54z"/><path fill="#8b75a1" d="M68,56H54c-1.105,0-2-0.895-2-2v-8c0-1.105,0.895-2,2-2h14c1.105,0,2,0.895,2,2v8 C70,55.105,69.105,56,68,56z"/><path fill="#c8d1db" d="M56,55.5c-0.827,0-1.5-0.673-1.5-1.5v-8c0-0.827,0.673-1.5,1.5-1.5h14c0.827,0,1.5,0.673,1.5,1.5v8 c0,0.827-0.673,1.5-1.5,1.5H56z"/><path fill="#66798f" d="M70,45c0.551,0,1,0.449,1,1v8c0,0.551-0.449,1-1,1H56c-0.551,0-1-0.449-1-1v-8c0-0.551,0.449-1,1-1 H70 M70,44H56c-1.105,0-2,0.895-2,2v8c0,1.105,0.895,2,2,2h14c1.105,0,2-0.895,2-2v-8C72,44.895,71.105,44,70,44L70,44z"/><path fill="#66798f" d="M66 48H68V52H66z"/><g><path fill="#bae0bd" d="M30.109,73.5c-0.722-2.986-0.871-8.037-0.871-15.135v-1.536c0-8.364-2.591-11.329-9.901-11.329H11.5 v28h-9v-67h20.749C33.273,6.5,39.5,13.364,39.5,24.413c0,9.627-4.15,13.748-7.632,15.51l-0.89,0.45l0.893,0.444 c4.489,2.23,6.579,7.362,6.579,16.15v2.205c0,4.346,0.112,10.265,0.63,14.328H30.109z M11.5,35.5h9.025 c6.712,0,9.975-3.107,9.975-9.5c0-5.86-3.367-9.5-8.788-9.5H11.5V35.5z"/><path fill="#5e9c76" d="M23.249,7C32.964,7,39,13.672,39,24.413c0,9.373-4.001,13.365-7.358,15.064l-1.779,0.9l1.786,0.887 c4.299,2.136,6.301,7.126,6.301,15.702v2.205c0,4.164,0.103,9.769,0.566,13.828h-8.008c-0.636-2.978-0.77-7.868-0.77-14.635v-1.536 C29.738,49.337,28.036,45,19.337,45H12h-1v1v27H3V7H23.249 M11,36h1h8.525C27.574,36,31,32.729,31,26c0-6.168-3.559-10-9.288-10H12 h-1v1v18V36 M23.249,6H2v68h10V46h7.337c7.322,0,9.401,2.988,9.401,10.829v1.536c0,7.925,0.194,12.757,0.984,15.635h9.93 c-0.522-3.629-0.702-9.223-0.702-14.828v-2.205c0-9.602-2.464-14.415-6.856-16.598C36.237,38.273,40,33.666,40,24.413 C40,12.872,33.368,6,23.249,6L23.249,6z M12,35V17h9.712C26.442,17,30,19.924,30,26c0,7.037-4.01,9-9.475,9H12L12,35z"/></g><g><path fill="#bae0bd" d="M67.793,39.5c-3.2-5.719-6.233-11.08-6.233-11.08l-0.144-0.254h-0.839l-0.142,0.262 c-0.036,0.065-3.53,6.5-6.221,11.072h-9.321l10.703-17.459L44.949,6.5h9.266c3.147,5.333,6.188,11.012,6.219,11.069l0.141,0.264 h0.832l0.146-0.241c0.506-0.835,1.088-1.92,1.825-3.294c1.141-2.127,2.553-4.761,4.403-7.798h9.262l-10.91,15.647L77.093,39.5 H67.793z"/><path fill="#5e9c76" d="M76.084,7L65.911,21.589l-0.38,0.545l0.355,0.561L76.186,39h-8.099 c-3.148-5.623-6.091-10.826-6.091-10.826l-0.287-0.508h-0.583h-0.25H60.28l-0.284,0.523c-0.035,0.064-3.403,6.265-6.068,10.81 h-8.142l10.067-16.422l0.339-0.553l-0.367-0.535L45.897,7h8.032c3.09,5.251,6.034,10.748,6.064,10.805l0.283,0.528h0.599h0.25 h0.563l0.292-0.482c0.513-0.847,1.098-1.937,1.838-3.317c1.108-2.066,2.472-4.61,4.244-7.535H76.084 M78,6H67.5 c-3.129,5.109-5.072,9.184-6.375,11.333h-0.25c0,0-3.133-5.857-6.375-11.333H44l11,16.056L44,40h10.5 c2.745-4.644,6.375-11.333,6.375-11.333h0.25c0,0,3.123,5.52,6.375,11.333H78L66.732,22.161L78,6L78,6z"/></g></svg>