<svg xmlns="http://www.w3.org/2000/svg"  viewBox="0 0 50 50" width="250px" height="250px"><path d="M 40.046875 1.9960938 A 1.0001 1.0001 0 0 0 39.683594 2.0507812 L 36.837891 3 L 11 3 C 8.8045455 3 7 4.8045455 7 7 L 5.5 7 C 3.5788117 7 2 8.5788117 2 10.5 C 2 12.244314 3.3224384 13.64401 5 13.898438 L 5 32 A 1.0001 1.0001 0 1 0 7 32 L 7 14 L 20.925781 14 L 12.337891 20.748047 C 10.827552 21.935735 10.561588 24.151565 11.748047 25.662109 C 12.319572 26.390456 13.145806 26.759255 14 26.886719 L 14 32 A 1.0001 1.0001 0 1 0 16 32 L 16 26.482422 C 16.215083 26.376669 16.465464 26.406512 16.660156 26.253906 A 1.0001 1.0001 0 0 0 16.662109 26.251953 L 22.28125 21.835938 L 29.257812 18 L 31.914062 18 C 31.419836 18.613828 31.264084 18.803747 30.566406 19.677734 C 29.195673 21.394864 27.792262 23.155759 27.318359 23.853516 C 27.317646 23.854516 27.317206 23.856422 27.316406 23.857422 C 26.925065 24.414771 26.411133 24.957508 26.160156 25.951172 C 25.814745 27.312785 26.084566 28.524453 26.642578 29.373047 C 27.200588 30.221641 27.968394 30.728604 28.740234 30.917969 C 29.485267 31.100247 30.26149 30.882766 31 30.496094 L 31 35 A 1.0001 1.0001 0 1 0 33 35 L 33 28.998047 C 34.103398 28.005112 40.135745 22.570387 44.197266 19.019531 A 1.0001 1.0001 0 0 0 44.199219 19.019531 C 45.577631 17.814105 46.293237 16.598172 46.648438 15.662109 C 46.834434 15.171951 46.791078 15.085556 46.832031 14.777344 L 49.316406 13.949219 A 1.0005646 1.0005646 0 1 0 48.683594 12.050781 L 45.683594 13.050781 A 1.0001 1.0001 0 0 0 45 14.027344 C 45 14.027344 45.0246 14.306687 44.779297 14.953125 C 44.533998 15.599563 44.020447 16.517098 42.880859 17.513672 C 38.74909 21.125945 32.517309 26.739088 31.535156 27.623047 A 1.0001 1.0001 0 0 0 31.177734 27.941406 C 31.150504 27.965926 30.658203 28.404297 30.658203 28.404297 A 1.0001 1.0001 0 0 0 30.626953 28.433594 C 30.091502 28.960432 29.521626 29.050596 29.216797 28.976562 C 29.022638 28.928932 28.57974 28.681797 28.3125 28.275391 C 28.04526 27.868984 27.874068 27.324746 28.097656 26.443359 A 1.0001 1.0001 0 0 0 28.097656 26.441406 C 28.238221 25.884883 28.468683 25.695538 28.955078 25.001953 A 1.0001 1.0001 0 0 0 28.964844 24.988281 C 29.240396 24.581426 30.758739 22.642202 32.128906 20.925781 C 33.499073 19.20936 34.777344 17.628906 34.777344 17.628906 A 1.0001 1.0001 0 0 0 34 16 L 29 16 A 1.0001 1.0001 0 0 0 28.517578 16.123047 L 21.246094 20.123047 A 1.0001 1.0001 0 0 0 21.109375 20.212891 L 15.425781 24.679688 C 15.146557 24.897996 14.82669 25 14.501953 25 C 14.057449 25 13.620643 24.807983 13.322266 24.427734 C 12.802725 23.766279 12.912557 22.840626 13.574219 22.320312 L 26.980469 11.787109 A 1.0002305 1.0002305 0 1 0 25.746094 10.212891 L 23.470703 12 L 6.1679688 12 A 1.0001 1.0001 0 0 0 5.8417969 12 L 5.5 12 C 4.6591883 12 4 11.340812 4 10.5 C 4 9.6591883 4.6591883 9 5.5 9 L 7.8320312 9 A 1.0001 1.0001 0 0 0 8.1582031 9 L 23 9 A 1.0001 1.0001 0 1 0 23 7 L 9 7 C 9 5.8954545 9.8954545 5 11 5 L 37 5 A 1.0001 1.0001 0 0 0 37.316406 4.9492188 L 40.316406 3.9492188 A 1.0001 1.0001 0 0 0 40.046875 1.9960938 z M 22 29 C 20.75 29 19.685226 29.504756 19.001953 30.273438 C 18.318681 31.042119 18 32.027778 18 33 C 18 33.972222 18.318681 34.957881 19.001953 35.726562 C 19.685226 36.495244 20.75 37 22 37 C 23.25 37 24.314774 36.495244 24.998047 35.726562 C 25.681319 34.957881 26 33.972222 26 33 C 26 32.027778 25.681319 31.042119 24.998047 30.273438 C 24.314774 29.504756 23.25 29 22 29 z M 22 31 C 22.749999 31 23.185226 31.245244 23.501953 31.601562 C 23.81868 31.957881 24 32.472222 24 33 C 24 33.527778 23.81868 34.042119 23.501953 34.398438 C 23.185226 34.754756 22.749999 35 22 35 C 21.250001 35 20.814774 34.754756 20.498047 34.398438 C 20.18132 34.042119 20 33.527778 20 33 C 20 32.472222 20.18132 31.957881 20.498047 31.601562 C 20.814774 31.245244 21.250001 31 22 31 z M 11.748047 34.009766 C 11.555679 34.025991 11.36448 34.061106 11.175781 34.115234 L 4.1757812 36.115234 C 2.5950517 36.567722 1.6643239 38.242312 2.1152344 39.824219 C 2.5662476 41.403509 4.2402171 42.3384 5.8242188 41.884766 L 11.650391 40.220703 L 12.601562 40.732422 L 9.1425781 46.484375 A 1.0005206 1.0005206 0 0 0 10.857422 47.515625 L 14.84375 40.882812 A 1.0001 1.0001 0 0 0 14.855469 40.863281 A 1.0001 1.0001 0 0 0 14.707031 39.642578 L 14.707031 39.640625 A 1.0001 1.0001 0 0 0 14.474609 39.46875 L 14.464844 39.462891 A 1.0001 1.0001 0 0 0 14.457031 39.458984 L 12.240234 38.265625 A 1.0001 1.0001 0 0 0 11.492188 38.185547 L 5.2734375 39.960938 C 4.7274391 40.117303 4.1940493 39.8181 4.0390625 39.275391 C 3.883973 38.731298 4.1832921 38.194575 4.7265625 38.039062 L 11.726562 36.039062 C 11.975126 35.967762 12.244874 35.996331 12.474609 36.119141 L 24.625 42.662109 A 1.0001 1.0001 0 0 0 25.492188 42.701172 L 31.607422 40.082031 A 1.0001 1.0001 0 0 0 31.609375 40.080078 C 32.124959 39.857879 32.696919 40.088278 32.919922 40.607422 C 33.141116 41.126853 32.913522 41.695781 32.394531 41.917969 L 25.394531 44.917969 C 25.267502 44.97244 25.133672 45 25 45 C 24.836099 45 24.674808 44.96034 24.527344 44.880859 A 1.0001 1.0001 0 0 0 24.525391 44.880859 L 22.027344 43.535156 A 1.0001 1.0001 0 0 0 20.697266 43.900391 L 19.142578 46.484375 A 1.0005207 1.0005207 0 1 0 20.857422 47.515625 L 21.919922 45.748047 L 23.578125 46.640625 C 24.020708 46.879145 24.509901 47 25 47 C 25.402328 47 25.804623 46.91939 26.181641 46.757812 L 33.181641 43.757812 C 34.69403 43.110284 35.40519 41.330395 34.757812 39.818359 A 1.0001 1.0001 0 0 0 34.757812 39.816406 C 34.108815 38.305599 32.328823 37.59234 30.816406 38.244141 L 25.148438 40.671875 L 13.423828 34.359375 A 1.0001 1.0001 0 0 0 13.421875 34.357422 C 12.907504 34.08116 12.32515 33.961089 11.748047 34.009766 z"/></svg>