<svg xmlns="http://www.w3.org/2000/svg"  viewBox="0 0 48 48" width="48px" height="48px"><path d="M 10.664062 5 C 8.6444495 5 7.0165503 6.7625042 7.1757812 8.7753906 L 7.453125 12.28125 A 1.50015 1.50015 0 1 0 10.443359 12.044922 L 10.166016 8.5390625 C 10.141247 8.2259489 10.349677 8 10.664062 8 L 37.335938 8 C 37.650323 8 37.858753 8.2259489 37.833984 8.5390625 L 36.462891 25.849609 A 1.5007527 1.5007527 0 1 0 39.455078 26.085938 L 40.824219 8.7753906 C 40.98345 6.7625042 39.35555 5 37.335938 5 L 10.664062 5 z M 17.701172 11.939453 A 1.50015 1.50015 0 1 0 17.701172 14.939453 L 30.570312 14.939453 L 30.238281 21.503906 L 20.373047 21.503906 A 1.50015 1.50015 0 1 0 20.373047 24.503906 L 30.085938 24.503906 L 29.75 31.138672 L 24.5625 32.962891 L 19.115234 30.892578 L 19.115234 29.683594 A 1.50015 1.50015 0 1 0 16.115234 29.683594 L 16.115234 31.927734 A 1.50015 1.50015 0 0 0 17.082031 33.328125 L 24.009766 35.962891 A 1.50015 1.50015 0 0 0 25.041016 35.976562 L 31.695312 33.634766 A 1.50015 1.50015 0 0 0 32.695312 32.294922 L 33.146484 23.384766 A 1.50015 1.50015 0 0 0 33.177734 22.773438 L 33.646484 13.515625 A 1.50015 1.50015 0 0 0 32.148438 11.939453 L 17.701172 11.939453 z M 9.4804688 17.269531 A 1.50015 1.50015 0 0 0 7.9785156 18.908203 L 9.4628906 37.693359 C 9.5710695 39.061299 10.477612 40.249483 11.771484 40.712891 L 22.818359 44.671875 A 1.50015 1.50015 0 0 0 22.820312 44.671875 C 23.583047 44.94478 24.416953 44.94478 25.179688 44.671875 L 36.226562 40.712891 C 37.521259 40.249875 38.426934 39.061843 38.535156 37.693359 L 38.878906 33.34375 A 1.50015 1.50015 0 1 0 35.888672 33.107422 L 35.544922 37.457031 C 35.529142 37.656547 35.404101 37.819734 35.216797 37.886719 A 1.50015 1.50015 0 0 0 35.214844 37.888672 L 24.167969 41.847656 C 24.058703 41.886746 23.939344 41.886746 23.830078 41.847656 L 12.783203 37.888672 A 1.50015 1.50015 0 0 0 12.783203 37.886719 C 12.595899 37.819729 12.470856 37.656547 12.455078 37.457031 L 10.96875 18.671875 A 1.50015 1.50015 0 0 0 9.4804688 17.269531 z"/></svg>