<svg xmlns="http://www.w3.org/2000/svg"  viewBox="0 0 80 80" width="80px" height="80px"><path d="M 39.75 17 C 39.19 17.01 38.749766 17.469531 38.759766 18.019531 C 38.769766 18.559531 39.209766 19 39.759766 19 L 39.779297 19 C 40.329297 18.99 40.769766 18.540234 40.759766 17.990234 C 40.749766 17.439234 40.3 16.99 39.75 17 z M 43.839844 17.130859 C 43.289844 17.090859 42.799766 17.500781 42.759766 18.050781 C 42.709766 18.600781 43.129688 19.080859 43.679688 19.130859 L 43.759766 19.130859 C 44.269766 19.130859 44.71 18.730937 44.75 18.210938 C 44.8 17.660938 44.389844 17.180859 43.839844 17.130859 z M 35.669922 17.259766 C 35.109922 17.309766 34.719297 17.809375 34.779297 18.359375 C 34.839297 18.870375 35.269531 19.25 35.769531 19.25 C 35.809531 19.25 35.850859 19.250234 35.880859 19.240234 C 36.430859 19.179234 36.829531 18.688672 36.769531 18.138672 C 36.709531 17.588672 36.209922 17.189766 35.669922 17.259766 z M 47.890625 17.648438 C 47.350625 17.559438 46.830234 17.920938 46.740234 18.460938 C 46.640234 19.010938 47.000781 19.518141 47.550781 19.619141 C 47.600781 19.629141 47.660703 19.639672 47.720703 19.638672 C 48.200703 19.638672 48.620937 19.298594 48.710938 18.808594 C 48.800937 18.268594 48.440625 17.749437 47.890625 17.648438 z M 32.017578 17.896484 C 31.890078 17.871578 31.754141 17.871187 31.619141 17.898438 C 31.079141 18.009438 30.739609 18.540078 30.849609 19.080078 C 30.949609 19.550078 31.360078 19.880859 31.830078 19.880859 C 31.890078 19.880859 31.959297 19.870375 32.029297 19.859375 C 32.569297 19.740375 32.920547 19.209922 32.810547 18.669922 C 32.720547 18.264172 32.400078 17.971203 32.017578 17.896484 z M 51.490234 18.529297 C 51.101172 18.578047 50.765156 18.8525 50.660156 19.25 C 50.510156 19.79 50.819609 20.340234 51.349609 20.490234 C 51.439609 20.510234 51.529141 20.520531 51.619141 20.519531 C 52.059141 20.519531 52.460078 20.228063 52.580078 19.789062 C 52.730078 19.259062 52.420625 18.710547 51.890625 18.560547 C 51.755625 18.523047 51.619922 18.513047 51.490234 18.529297 z M 28.056641 18.890625 C 27.926953 18.877656 27.792656 18.889688 27.660156 18.929688 C 27.130156 19.099688 26.839766 19.660453 27.009766 20.189453 C 27.139766 20.609453 27.530938 20.889672 27.960938 20.888672 C 28.060937 20.888672 28.159766 20.869844 28.259766 20.839844 C 28.789766 20.679844 29.079922 20.109844 28.919922 19.589844 C 28.792422 19.192344 28.445703 18.929531 28.056641 18.890625 z M 55.380859 19.773438 C 54.993203 19.786328 54.630469 20.029172 54.480469 20.419922 C 54.290469 20.929922 54.540547 21.510938 55.060547 21.710938 C 55.180547 21.750937 55.299922 21.769531 55.419922 21.769531 C 55.819922 21.769531 56.199609 21.530859 56.349609 21.130859 C 56.549609 20.610859 56.289531 20.029844 55.769531 19.839844 C 55.642031 19.789844 55.510078 19.769141 55.380859 19.773438 z M 24.210938 20.261719 C 24.080625 20.261719 23.947813 20.287344 23.820312 20.339844 C 23.310312 20.549844 23.069063 21.138437 23.289062 21.648438 C 23.449062 22.029438 23.820938 22.259812 24.210938 22.257812 C 24.340937 22.257812 24.469609 22.2385 24.599609 22.1875 C 25.099609 21.9685 25.340859 21.379141 25.130859 20.869141 C 24.973359 20.486641 24.601875 20.261719 24.210938 20.261719 z M 59.138672 21.371094 C 58.751484 21.349531 58.367188 21.554688 58.179688 21.929688 C 57.939688 22.429688 58.150625 23.019531 58.640625 23.269531 C 58.780625 23.339531 58.930078 23.370094 59.080078 23.371094 C 59.450078 23.371094 59.810469 23.161547 59.980469 22.810547 C 60.220469 22.310547 60.019531 21.710703 59.519531 21.470703 C 59.397031 21.410703 59.267734 21.378281 59.138672 21.371094 z M 20.507812 21.986328 C 20.379062 21.9975 20.250859 22.034609 20.130859 22.099609 C 19.640859 22.359609 19.460703 22.969219 19.720703 23.449219 C 19.900703 23.789219 20.239609 23.979516 20.599609 23.978516 C 20.759609 23.978516 20.920313 23.949141 21.070312 23.869141 C 21.560313 23.599141 21.740469 22.999766 21.480469 22.509766 C 21.285469 22.150516 20.894063 21.952813 20.507812 21.986328 z M 62.736328 23.292969 C 62.350547 23.235547 61.950234 23.410281 61.740234 23.769531 C 61.450234 24.240531 61.610078 24.850625 62.080078 25.140625 C 62.240078 25.240625 62.419844 25.279297 62.589844 25.279297 C 62.929844 25.279297 63.259219 25.110781 63.449219 24.800781 C 63.739219 24.330781 63.579375 23.709688 63.109375 23.429688 C 62.991875 23.357188 62.864922 23.312109 62.736328 23.292969 z M 16.976562 24.037109 C 16.849062 24.061172 16.724375 24.111953 16.609375 24.189453 L 16.609375 24.179688 C 16.149375 24.490687 16.020312 25.098359 16.320312 25.568359 C 16.510313 25.858359 16.830156 26.020531 17.160156 26.019531 C 17.340156 26.019531 17.529219 25.969375 17.699219 25.859375 C 18.159219 25.559375 18.300234 24.938516 17.990234 24.478516 C 17.765234 24.126016 17.359063 23.964922 16.976562 24.037109 z M 65.771484 25.501953 C 65.517734 25.544578 65.279141 25.685156 65.119141 25.910156 C 64.799141 26.350156 64.899609 26.980781 65.349609 27.300781 C 65.519609 27.430781 65.729688 27.489234 65.929688 27.490234 C 66.239688 27.490234 66.550234 27.341313 66.740234 27.070312 C 67.070234 26.630312 66.969531 25.999688 66.519531 25.679688 C 66.294531 25.514188 66.025234 25.459328 65.771484 25.501953 z M 14.023438 26.355469 C 13.769687 26.324219 13.504062 26.390547 13.289062 26.560547 C 12.849063 26.899547 12.769375 27.520937 13.109375 27.960938 C 13.309375 28.210937 13.600391 28.349609 13.900391 28.349609 C 14.120391 28.349609 14.329766 28.281625 14.509766 28.140625 L 14.509766 28.130859 C 14.949766 27.800859 15.029453 27.170469 14.689453 26.730469 C 14.519453 26.515469 14.277188 26.386719 14.023438 26.355469 z M 69.001953 27.962891 C 68.746953 27.982766 68.500313 28.100547 68.320312 28.310547 C 67.960312 28.730547 68.009687 29.360703 68.429688 29.720703 C 68.619688 29.880703 68.850078 29.959938 69.080078 29.960938 C 69.360078 29.960937 69.649844 29.839375 69.839844 29.609375 C 70.199844 29.189375 70.150469 28.551172 69.730469 28.201172 C 69.520469 28.020672 69.256953 27.943016 69.001953 27.962891 z M 10.886719 28.923828 C 10.630469 28.912453 10.369922 28.999453 10.169922 29.189453 C 9.7599219 29.559453 9.7296094 30.189609 10.099609 30.599609 C 10.299609 30.809609 10.569844 30.920875 10.839844 30.921875 C 11.079844 30.921875 11.319766 30.840156 11.509766 30.660156 C 11.919766 30.290156 11.950078 29.661953 11.580078 29.251953 C 11.395078 29.046453 11.142969 28.935203 10.886719 28.923828 z M 72.025391 30.677734 C 71.770391 30.677734 71.515312 30.775703 71.320312 30.970703 C 70.930313 31.359703 70.920547 31.990859 71.310547 32.380859 C 71.510547 32.580859 71.769531 32.679688 72.019531 32.679688 C 72.279531 32.679688 72.530469 32.580859 72.730469 32.380859 C 73.120469 31.991859 73.120469 31.360703 72.730469 30.970703 C 72.535469 30.775703 72.280391 30.677734 72.025391 30.677734 z M 7.9570312 31.736328 C 7.7020313 31.745078 7.4497656 31.850781 7.2597656 32.050781 C 6.8797656 32.450781 6.9007812 33.080937 7.3007812 33.460938 C 7.4907813 33.640938 7.7402344 33.729469 7.9902344 33.730469 C 8.2502344 33.730469 8.5209375 33.629922 8.7109375 33.419922 C 9.0909375 33.019922 9.0699219 32.38 8.6699219 32 C 8.4699219 31.815 8.2120312 31.727578 7.9570312 31.736328 z M 74.814453 33.648438 C 74.559453 33.623312 74.295078 33.695594 74.080078 33.871094 C 73.650078 34.220094 73.589453 34.849531 73.939453 35.269531 C 74.139453 35.519531 74.420938 35.639625 74.710938 35.640625 C 74.940938 35.640625 75.159609 35.570875 75.349609 35.421875 C 75.769609 35.071875 75.840234 34.441719 75.490234 34.011719 C 75.315234 33.796719 75.069453 33.673563 74.814453 33.648438 z M 5.2460938 34.761719 C 4.9923437 34.790469 4.7500781 34.915859 4.5800781 35.130859 C 4.2300781 35.559859 4.3004688 36.188297 4.7304688 36.529297 C 4.9204688 36.679297 5.1396094 36.75 5.3496094 36.75 C 5.6496094 36.75 5.940625 36.620859 6.140625 36.380859 C 6.480625 35.950859 6.4104687 35.320703 5.9804688 34.970703 C 5.7654687 34.800703 5.4998438 34.732969 5.2460938 34.761719 z M 77.990234 37.972656 A 1.0001 1.0001 0 0 0 77.578125 38.085938 C 69.302377 40.805028 57.444892 43.696615 43 44 C 26.110733 44.353651 12.401731 41.026067 3.4414062 38.083984 A 1.0001 1.0001 0 0 0 3.0449219 37.988281 A 1.0001 1.0001 0 0 0 2.421875 38.181641 A 1.0001 1.0001 0 0 0 2.1699219 38.451172 C 2.1646791 38.459149 2.1554362 38.462526 2.1503906 38.470703 C 2.1454376 38.47873 2.1453277 38.487981 2.140625 38.496094 A 1.0001 1.0001 0 0 0 2.1308594 38.515625 A 1.0001 1.0001 0 0 0 2.0878906 38.605469 A 1.0001 1.0001 0 0 0 2.0546875 38.691406 A 1.0001 1.0001 0 0 0 2.0390625 38.755859 A 1.0001 1.0001 0 0 0 2.03125 38.789062 A 1.0001 1.0001 0 0 0 2.0292969 38.796875 C 2.0223948 38.829998 2.017193 38.863114 2.0136719 38.896484 A 1.0001 1.0001 0 0 0 2.0234375 39.150391 C 2.030458 39.19671 2.0374297 39.240302 2.0507812 39.285156 A 1.0001 1.0001 0 0 0 2.1464844 39.5 C 2.1739805 39.547459 2.2047251 39.590062 2.2402344 39.632812 A 1.0001 1.0001 0 0 0 2.2441406 39.638672 C 2.7506237 40.449483 6.1330886 45.633479 12.486328 50.773438 C 18.983286 56.029668 28.557282 61.141662 41.03125 61 C 53.177911 60.862429 62.460172 55.807836 68.767578 50.648438 C 74.934292 45.604124 78.237491 40.531701 78.792969 39.640625 A 1.0001 1.0001 0 0 0 79.033203 39.056641 A 1.0001 1.0001 0 0 0 79.037109 38.980469 A 1.0001 1.0001 0 0 0 79.037109 38.970703 A 1.0001 1.0001 0 0 0 79.03125 38.884766 A 1.0001 1.0001 0 0 0 79.03125 38.878906 A 1.0001 1.0001 0 0 0 79.03125 38.876953 A 1.0001 1.0001 0 0 0 77.990234 37.972656 z M 75.513672 40.828125 C 73.936029 42.897384 71.259179 46.026234 67.501953 49.099609 C 61.44186 54.056709 52.612151 58.868571 41.007812 59 C 29.090781 59.135338 19.988683 54.270769 13.744141 49.21875 C 9.9020391 46.110377 7.1592543 42.929389 5.5488281 40.835938 C 10.592701 42.362664 16.799104 43.884045 24.017578 44.882812 C 26.458438 51.934683 33.150265 57 41.019531 57 C 48.943351 57 55.674155 51.864756 58.072266 44.736328 C 64.793348 43.745664 70.646788 42.303594 75.513672 40.828125 z M 55.832031 45.044922 C 53.44852 50.880974 47.725215 55 41.019531 55 C 34.363 55 28.676313 50.939981 26.261719 45.171875 C 27.199509 45.283772 28.152919 45.384379 29.121094 45.476562 C 29.300601 45.784065 29.627402 45.970703 29.970703 45.970703 C 30.110703 45.970703 30.250859 45.940625 30.380859 45.890625 C 30.517847 45.827884 30.627951 45.734723 30.720703 45.626953 C 34.606152 45.944396 38.721445 46.090449 43.041016 46 C 46.014021 45.937609 48.873821 45.762714 51.623047 45.507812 C 51.687079 45.554368 51.743951 45.609182 51.820312 45.640625 C 51.940313 45.689625 52.069219 45.710938 52.199219 45.710938 C 52.477914 45.710938 52.7493 45.588264 52.9375 45.378906 C 53.916718 45.277269 54.883844 45.166547 55.832031 45.044922 z M 50.019531 47.074219 C 49.764531 47.085469 49.515078 47.195891 49.330078 47.400391 C 48.960078 47.810391 48.990625 48.440547 49.390625 48.810547 C 49.590625 48.990547 49.830313 49.068359 50.070312 49.068359 C 50.340312 49.068359 50.610547 48.96 50.810547 48.75 C 51.180547 48.34 51.150234 47.709844 50.740234 47.339844 C 50.535234 47.150344 50.274531 47.062969 50.019531 47.074219 z M 32.212891 47.273438 C 31.956641 47.268437 31.7 47.360781 31.5 47.550781 C 31.1 47.930781 31.090703 48.560703 31.470703 48.970703 C 31.670703 49.170703 31.929453 49.270531 32.189453 49.269531 C 32.439453 49.269531 32.690625 49.179234 32.890625 48.990234 C 33.290625 48.609234 33.299922 47.979078 32.919922 47.580078 C 32.724922 47.380078 32.469141 47.278438 32.212891 47.273438 z M 46.832031 49.525391 C 46.701875 49.537422 46.571719 49.575625 46.449219 49.640625 C 45.969219 49.910625 45.790781 50.51 46.050781 51 C 46.230781 51.33 46.579687 51.519531 46.929688 51.519531 C 47.089688 51.519531 47.260156 51.480391 47.410156 51.400391 C 47.890156 51.140391 48.070547 50.530781 47.810547 50.050781 C 47.615547 49.683281 47.2225 49.489297 46.832031 49.525391 z M 35.466797 49.648438 C 35.076797 49.618344 34.6875 49.822703 34.5 50.189453 C 34.25 50.680453 34.439453 51.279063 34.939453 51.539062 C 35.079453 51.608063 35.240625 51.648438 35.390625 51.648438 C 35.750625 51.648438 36.099297 51.450609 36.279297 51.099609 C 36.529297 50.609609 36.339609 50.009766 35.849609 49.759766 C 35.727109 49.695016 35.596797 49.658469 35.466797 49.648438 z M 43 50.830078 C 42.45 50.929078 42.089687 51.439234 42.179688 51.990234 C 42.259688 52.479234 42.689922 52.819313 43.169922 52.820312 C 43.219922 52.820312 43.279844 52.820547 43.339844 52.810547 C 43.879844 52.711547 44.240391 52.201391 44.150391 51.650391 C 44.060391 51.110391 43.54 50.739844 43 50.839844 L 43 50.830078 z M 39.330078 50.869141 C 38.790078 50.789141 38.279219 51.170938 38.199219 51.710938 C 38.109219 52.260938 38.489063 52.769609 39.039062 52.849609 C 39.089063 52.858609 39.139688 52.858375 39.179688 52.859375 C 39.669688 52.859375 40.099922 52.509766 40.169922 52.009766 C 40.259922 51.459766 39.880078 50.949141 39.330078 50.869141 z"/></svg>