<svg xmlns="http://www.w3.org/2000/svg"  viewBox="0 0 50 50" width="500px" height="500px"><path d="M 25 0.09765625 C 23.019 0.09765625 21.228953 1.0397969 18.751953 2.3417969 C 15.560953 4.0207969 11.188156 6.3183594 3.7851562 7.9433594 L 3 8.1152344 L 3 8.9199219 C 3 39.384922 24.364078 49.600219 24.580078 49.699219 L 25.021484 49.902344 L 25.453125 49.681641 C 25.668125 49.571641 47 38.369922 47 8.9199219 L 47 8.1152344 L 46.214844 7.9433594 C 38.811844 6.3183594 34.439047 4.0207969 31.248047 2.3417969 C 28.771047 1.0397969 26.981 0.09765625 25 0.09765625 z M 23 12 L 27.199219 12 L 27.699219 15.199219 C 27.999219 15.299219 28.399219 15.399609 28.699219 15.599609 L 31.300781 13.699219 L 34.199219 16.599609 L 32.400391 19.300781 C 32.600391 19.600781 32.700781 20.000781 32.800781 20.300781 L 36 20.800781 L 36 25 L 32.900391 25.599609 C 32.800391 25.899609 32.7 26.299219 32.5 26.699219 L 34.400391 29.300781 L 31.400391 32.300781 L 28.699219 30.5 C 28.299219 30.7 27.999219 30.800391 27.699219 30.900391 L 27.099609 34 L 23 34 L 22.5 30.800781 C 22.1 30.700781 21.800391 30.600391 21.400391 30.400391 L 18.699219 32.199219 L 15.699219 29.199219 L 17.5 26.5 C 17.3 26.2 17.199609 25.8 17.099609 25.5 L 14 25 L 14 20.800781 L 17.099609 20.300781 C 17.199609 19.900781 17.4 19.599219 17.5 19.199219 L 15.699219 16.699219 L 18.699219 13.699219 L 21.400391 15.599609 C 21.700391 15.399609 22.100391 15.299219 22.400391 15.199219 L 23 12 z M 25 20 A 3 3 0 0 0 25 26 A 3 3 0 0 0 25 20 z"/></svg>