<svg xmlns="http://www.w3.org/2000/svg"  viewBox="0 0 256 256" width="100px" height="100px"><path fill="#7bac51" d="M242,4h-48.954c-5.523,0-10,4.477-10,10v15.284c0,5.523,4.477,10,10,10H242c5.523,0,10-4.477,10-10V14 C252,8.477,247.523,4,242,4z"/><path fill="#5d8e33" d="M242,4h-6c5.523,0,10,4.477,10,10v15.284c0,5.523-4.477,10-10,10h6c5.523,0,10-4.477,10-10V14 C252,8.477,247.523,4,242,4z"/><path fill="#99ca6f" d="M193.046,39.284h6c-5.523,0-10-4.477-10-10V14c0-5.523,4.477-10,10-10h-6c-5.523,0-10,4.477-10,10v15.284 C183.046,34.807,187.523,39.284,193.046,39.284z"/><path fill="#690589" d="M242,41.284h-48.954c-6.617,0-12-5.383-12-12V14c0-6.617,5.383-12,12-12H242c6.617,0,12,5.383,12,12v15.284 C254,35.901,248.617,41.284,242,41.284z M193.046,6c-4.411,0-8,3.589-8,8v15.284c0,4.411,3.589,8,8,8H242c4.411,0,8-3.589,8-8V14 c0-4.411-3.589-8-8-8H193.046z"/><path fill="#ff4397" d="M62.954,4H14C8.477,4,4,8.477,4,14v15.284c0,5.523,4.477,10,10,10h48.954c5.523,0,10-4.477,10-10V14 C72.954,8.477,68.477,4,62.954,4z"/><path fill="#fcc24c" d="M152.477,4h-48.954c-5.523,0-10,4.477-10,10v15.284c0,5.523,4.477,10,10,10h48.954c5.523,0,10-4.477,10-10V14 C162.477,8.477,158,4,152.477,4z"/><path fill="#e12579" d="M62.954,4h-6c5.523,0,10,4.477,10,10v15.284c0,5.523-4.477,10-10,10h6c5.523,0,10-4.477,10-10V14 C72.954,8.477,68.477,4,62.954,4z"/><path fill="#ff61b5" d="M14,39.284h6c-5.523,0-10-4.477-10-10V14c0-5.523,4.477-10,10-10h-6C8.477,4,4,8.477,4,14v15.284 C4,34.807,8.477,39.284,14,39.284z"/><path fill="#fcc24c" d="M169.11,108.663c0-23.237-19.279-41.971-42.715-41.079c-21.21,0.807-38.532,18.021-39.464,39.225 c-0.73,16.609,8.405,31.153,22.031,38.288v24.313c0,10.514,8.523,19.038,19.038,19.038l0,0c10.514,0,19.038-8.523,19.038-19.038 v-24.313C160.154,138.228,169.11,124.495,169.11,108.663z"/><path fill="#dea42e" d="M126.395,67.584c-0.659,0.025-1.314,0.066-1.965,0.123c21.098,1.744,37.68,19.408,37.68,40.956 c0,15.833-8.955,29.566-22.072,36.434v24.313c0,9.317-6.697,17.057-15.538,18.702c1.136,0.211,2.303,0.335,3.5,0.335 c10.514,0,19.038-8.523,19.038-19.037v-24.313c13.117-6.868,22.072-20.601,22.072-36.434 C169.11,85.426,149.83,66.692,126.395,67.584z"/><path fill="#fce06a" d="M129.605,67.584c0.659,0.025,1.314,0.066,1.965,0.123c-21.098,1.744-37.68,19.408-37.68,40.956 c0,15.833,8.956,29.566,22.072,36.434v24.313c0,9.317,6.697,17.057,15.537,18.702c-1.136,0.211-2.303,0.335-3.5,0.335 c-10.514,0-19.037-8.523-19.037-19.037v-24.313c-13.117-6.868-22.072-20.601-22.072-36.434 C86.89,85.426,106.17,66.692,129.605,67.584z"/><path fill="#ff4397" d="M108.962,169.409c0,10.514,8.523,19.038,19.038,19.038s19.038-8.523,19.038-19.038v-24.313h-38.075V169.409z"/><path fill="#e12579" d="M140.038,145.097C140.038,145.097,140.038,145.097,140.038,145.097l0,24.313 c0,9.317-6.697,17.057-15.538,18.702c0.564,0.105,1.137,0.188,1.716,0.245c0.554,0.052,1.115,0.082,1.682,0.085 c0.034,0,0.067,0.005,0.101,0.005c10.514,0,19.038-8.523,19.038-19.037v-24.313l0,0H140.038z"/><path fill="#ff61b5" d="M115.962,145.097C115.962,145.097,115.962,145.097,115.962,145.097l0,24.313 c0,9.317,6.697,17.057,15.538,18.702c-0.564,0.105-1.137,0.188-1.716,0.245c-0.555,0.052-1.115,0.082-1.682,0.085 c-0.034,0-0.067,0.005-0.101,0.005c-10.514,0-19.038-8.523-19.038-19.037v-24.313l0,0H115.962z"/><path fill="#7bac51" d="M134.352,121.198c0,3.508-2.844,6.352-6.352,6.352c-3.508,0-6.352-2.844-6.352-6.352 c0-3.508,2.844-6.352,6.352-6.352C131.508,114.846,134.352,117.69,134.352,121.198z"/><path fill="#690589" d="M128,147.097c-1.104,0-2-0.896-2-2v-16.617c0-1.104,0.896-2,2-2s2,0.896,2,2v16.617 C130,146.201,129.104,147.097,128,147.097z"/><path fill="#690589" d="M128,129.55c-4.605,0-8.352-3.747-8.352-8.352c0-4.605,3.746-8.352,8.352-8.352s8.352,3.747,8.352,8.352 C136.352,125.803,132.605,129.55,128,129.55z M128,116.846c-2.399,0-4.352,1.952-4.352,4.352c0,2.4,1.952,4.352,4.352,4.352 s4.352-1.952,4.352-4.352C132.352,118.798,130.399,116.846,128,116.846z"/><path fill="#690589" d="M128,190.447c-11.601,0-21.038-9.438-21.038-21.038v-23.122c-14.131-7.921-22.743-23.316-22.029-39.566 c0.978-22.221,19.156-40.29,41.386-41.136c11.832-0.452,23.058,3.816,31.575,12.017c8.522,8.204,13.216,19.235,13.216,31.061 c0,15.684-8.425,29.989-22.071,37.625v23.121C149.038,181.009,139.601,190.447,128,190.447z M128.014,69.553 c-0.514,0-1.026,0.01-1.543,0.029c-20.165,0.768-36.655,17.158-37.542,37.314c-0.664,15.114,7.563,29.413,20.961,36.428 c0.659,0.345,1.072,1.028,1.072,1.772v24.312c0,9.395,7.644,17.038,17.038,17.038s17.038-7.643,17.038-17.038v-24.312 c0-0.744,0.413-1.427,1.072-1.772c12.953-6.782,20.999-20.064,20.999-34.662c0-10.729-4.258-20.736-11.989-28.179 C147.764,73.402,138.188,69.553,128.014,69.553z"/><path fill="#690589" d="M94.898,109.16c-0.03,0-0.06,0-0.09-0.002c-1.104-0.048-1.959-0.982-1.91-2.086 c0.193-4.404,1.197-8.684,2.982-12.721c0.446-1.011,1.629-1.467,2.638-1.02c1.011,0.447,1.467,1.628,1.021,2.638 c-1.583,3.58-2.473,7.375-2.645,11.279C96.848,108.322,95.962,109.16,94.898,109.16z"/><path fill="#690589" d="M128,190.447c-11.601,0-21.038-9.438-21.038-21.038v-24.312c0-1.104,0.896-2,2-2h38.076c1.104,0,2,0.896,2,2 v24.312C149.038,181.009,139.601,190.447,128,190.447z M110.962,147.097v22.312c0,9.395,7.644,17.038,17.038,17.038 s17.038-7.643,17.038-17.038v-22.312H110.962z"/><path fill="#690589" d="M146.227,159.902h-36.453c-1.104,0-2-0.896-2-2s0.896-2,2-2h36.453c1.104,0,2,0.896,2,2 S147.331,159.902,146.227,159.902z"/><path fill="#690589" d="M146.227,173.842h-36.453c-1.104,0-2-0.896-2-2s0.896-2,2-2h36.453c1.104,0,2,0.896,2,2 S147.331,173.842,146.227,173.842z"/><path fill="#f4efed" d="M246.667,252h-50.648c-2.945,0-5.333-2.387-5.333-5.333v-71.157c0-2.945,2.387-5.332,5.333-5.332h50.648 c2.945,0,5.333,2.387,5.333,5.332v71.157C252,249.613,249.613,252,246.667,252z"/><path fill="#d6d1cf" d="M246.452,170.178h-6.399c2.945,0,5.332,2.387,5.332,5.333v71.156c0,2.945-2.387,5.333-5.332,5.333h6.399 c2.945,0,5.333-2.387,5.333-5.333v-71.156C251.785,172.566,249.397,170.178,246.452,170.178z"/><path fill="#fff" d="M196.019,252h6.399c-2.945,0-5.332-2.387-5.332-5.333v-71.156c0-2.945,2.387-5.333,5.332-5.333h-6.399 c-2.945,0-5.333,2.387-5.333,5.333v71.156C190.687,249.612,193.074,252,196.019,252z"/><path fill="#690589" d="M246.668,254H196.02c-4.043,0-7.333-3.29-7.333-7.333v-71.157c0-4.043,3.29-7.333,7.333-7.333h50.648 c4.043,0,7.332,3.29,7.332,7.333v71.157C254,250.71,250.711,254,246.668,254z M196.02,172.178c-1.838,0-3.333,1.495-3.333,3.333 v71.157c0,1.837,1.495,3.333,3.333,3.333h50.648c1.837,0,3.332-1.495,3.332-3.333v-71.157c0-1.837-1.495-3.333-3.332-3.333H196.02 z"/><path fill="#690589" d="M240.054,190.729H203.81c-1.104,0-2-0.896-2-2s0.896-2,2-2h36.244c1.104,0,2,0.896,2,2 S241.158,190.729,240.054,190.729z"/><path fill="#690589" d="M240.054,204.963H203.81c-1.104,0-2-0.896-2-2s0.896-2,2-2h36.244c1.104,0,2,0.896,2,2 S241.158,204.963,240.054,204.963z"/><path fill="#690589" d="M240.054,219.198H203.81c-1.104,0-2-0.896-2-2s0.896-2,2-2h36.244c1.104,0,2,0.896,2,2 S241.158,219.198,240.054,219.198z"/><path fill="#690589" d="M240.054,233.433H203.81c-1.104,0-2-0.896-2-2s0.896-2,2-2h36.244c1.104,0,2,0.896,2,2 S241.158,233.433,240.054,233.433z"/><path fill="#f4efed" d="M59.981,252H9.333C6.387,252,4,249.613,4,246.667v-71.157c0-2.945,2.387-5.332,5.333-5.332h50.648 c2.945,0,5.333,2.387,5.333,5.332v71.157C65.313,249.613,62.926,252,59.981,252z"/><path fill="#d6d1cf" d="M59.766,170.178h-6.399c2.945,0,5.333,2.387,5.333,5.333v71.156c0,2.945-2.387,5.333-5.333,5.333h6.399 c2.945,0,5.332-2.387,5.332-5.333v-71.156C65.098,172.566,62.711,170.178,59.766,170.178z"/><path fill="#fff" d="M9.333,252h6.399c-2.945,0-5.332-2.387-5.332-5.333v-71.156c0-2.945,2.387-5.333,5.332-5.333H9.333 c-2.945,0-5.333,2.387-5.333,5.333v71.156C4,249.612,6.387,252,9.333,252z"/><path fill="#690589" d="M59.98,254H9.332C5.289,254,2,250.71,2,246.667v-71.157c0-4.043,3.289-7.333,7.332-7.333H59.98 c4.043,0,7.333,3.29,7.333,7.333v71.157C67.313,250.71,64.023,254,59.98,254z M9.332,172.178c-1.837,0-3.332,1.495-3.332,3.333 v71.157C6,248.505,7.495,250,9.332,250H59.98c1.838,0,3.333-1.495,3.333-3.333v-71.157c0-1.837-1.495-3.333-3.333-3.333H9.332z"/><path fill="#690589" d="M53.367,190.729H17.123c-1.104,0-2-0.896-2-2s0.896-2,2-2h36.244c1.104,0,2,0.896,2,2 S54.472,190.729,53.367,190.729z"/><path fill="#690589" d="M53.367,204.963H17.123c-1.104,0-2-0.896-2-2s0.896-2,2-2h36.244c1.104,0,2,0.896,2,2 S54.472,204.963,53.367,204.963z"/><path fill="#690589" d="M53.367,219.198H17.123c-1.104,0-2-0.896-2-2s0.896-2,2-2h36.244c1.104,0,2,0.896,2,2 S54.472,219.198,53.367,219.198z"/><path fill="#690589" d="M53.367,233.433H17.123c-1.104,0-2-0.896-2-2s0.896-2,2-2h36.244c1.104,0,2,0.896,2,2 S54.472,233.433,53.367,233.433z"/><path fill="#690589" d="M62.954,41.284H14c-6.617,0-12-5.383-12-12V14C2,7.383,7.383,2,14,2h48.954c6.617,0,12,5.383,12,12v15.284 C74.954,35.901,69.571,41.284,62.954,41.284z M14,6c-4.411,0-8,3.589-8,8v15.284c0,4.411,3.589,8,8,8h48.954c4.411,0,8-3.589,8-8 V14c0-4.411-3.589-8-8-8H14z"/><path fill="#dea42e" d="M152.477,4h-6c5.523,0,10,4.477,10,10v15.284c0,5.523-4.477,10-10,10h6c5.523,0,10-4.477,10-10V14 C162.477,8.477,158,4,152.477,4z"/><path fill="#fce06a" d="M103.523,39.284h6c-5.523,0-10-4.477-10-10V14c0-5.523,4.477-10,10-10h-6c-5.523,0-10,4.477-10,10v15.284 C93.523,34.807,98,39.284,103.523,39.284z"/><path fill="#690589" d="M152.478,41.284h-48.955c-6.617,0-12-5.383-12-12V14c0-6.617,5.383-12,12-12h48.955c6.617,0,12,5.383,12,12 v15.284C164.478,35.901,159.095,41.284,152.478,41.284z M103.522,6c-4.411,0-8,3.589-8,8v15.284c0,4.411,3.589,8,8,8h48.955 c4.411,0,8-3.589,8-8V14c0-4.411-3.589-8-8-8H103.522z"/><path fill="#690589" d="M128,219.198H93.729c-6.617,0-12-5.383-12-12v-52.102c0-4.411-3.589-8-8-8H44.656c-4.411,0-8,3.589-8,8 v15.082c0,1.104-0.896,2-2,2s-2-0.896-2-2v-15.082c0-6.617,5.383-12,12-12h29.072c6.617,0,12,5.383,12,12v52.102 c0,4.411,3.589,8,8,8H126v-26.751c0-1.104,0.896-2,2-2s2,0.896,2,2v28.751C130,218.303,129.104,219.198,128,219.198z"/><path fill="#690589" d="M162.271,219.198H128c-1.104,0-2-0.896-2-2s0.896-2,2-2h34.271c4.411,0,8-3.589,8-8v-52.102 c0-6.617,5.383-12,12-12h29.072c6.617,0,12,5.383,12,12v15.082c0,1.104-0.896,2-2,2s-2-0.896-2-2v-15.082c0-4.411-3.589-8-8-8 h-29.072c-4.411,0-8,3.589-8,8v52.102C174.271,213.815,168.889,219.198,162.271,219.198z"/><path fill="#690589" d="M207.522,57.74H48.478c-6.617,0-12-5.383-12-12v-6.456c0-1.104,0.896-2,2-2s2,0.896,2,2v6.456 c0,4.411,3.589,8,8,8h159.045c4.411,0,8-3.589,8-8v-6.456c0-1.104,0.896-2,2-2s2,0.896,2,2v6.456 C219.522,52.356,214.14,57.74,207.522,57.74z"/><path fill="#690589" d="M128,69.584c-1.104,0-2-0.896-2-2v-28.3c0-1.104,0.896-2,2-2s2,0.896,2,2v28.3 C130,68.688,129.104,69.584,128,69.584z"/></svg>