<svg xmlns="http://www.w3.org/2000/svg"  viewBox="0 0 64 64" width="256px" height="256px"><path d="M 15 4 C 9.28 4 5 6.11 5 8 C 5 9.89 9.28 12 15 12 C 20.72 12 25 9.89 25 8 C 25 6.11 20.72 4 15 4 z M 49 4 C 43.28 4 39 6.11 39 8 C 39 9.89 43.28 12 49 12 C 54.72 12 59 9.89 59 8 C 59 6.11 54.72 4 49 4 z M 9 7 L 21 7 L 21 9 L 9 9 L 9 7 z M 43 7 L 55 7 L 55 9 L 43 9 L 43 7 z M 5 11.410156 L 5 15 C 5 16.89 9.28 19 15 19 C 20.72 19 25 16.89 25 15 L 25 11.410156 C 22.89 12.990156 19.27 14 15 14 C 10.73 14 7.11 12.990156 5 11.410156 z M 39 11.410156 L 39 15 C 39 16.89 43.28 19 49 19 C 54.72 19 59 16.89 59 15 L 59 11.410156 C 56.89 12.990156 53.27 14 49 14 C 44.73 14 41.11 12.990156 39 11.410156 z M 6 14 L 8 14 L 8 16 L 6 16 L 6 14 z M 40 14 L 42 14 L 42 16 L 40 16 L 40 14 z M 10 15 L 12 15 L 12 17 L 10 17 L 10 15 z M 44 15 L 46 15 L 46 17 L 44 17 L 44 15 z M 5 18.410156 L 5 22 C 5 23.89 9.28 26 15 26 C 20.72 26 25 23.89 25 22 L 25 18.410156 C 22.89 19.990156 19.27 21 15 21 C 10.73 21 7.11 19.990156 5 18.410156 z M 39 18.410156 L 39 22 C 39 23.89 43.28 26 49 26 C 54.72 26 59 23.89 59 22 L 59 18.410156 C 56.89 19.990156 53.27 21 49 21 C 44.73 21 41.11 19.990156 39 18.410156 z M 6 21 L 8 21 L 8 23 L 6 23 L 6 21 z M 40 21 L 42 21 L 42 23 L 40 23 L 40 21 z M 10 22 L 12 22 L 12 24 L 10 24 L 10 22 z M 44 22 L 46 22 L 46 24 L 44 24 L 44 22 z M 14 28 L 14 32 A 1 1 0 0 0 15 33 L 28 33 L 28 36 L 30 36 L 30 32 A 1 1 0 0 0 29 31 L 16 31 L 16 28 L 14 28 z M 48 28 L 48 31 L 35 31 A 1 1 0 0 0 34 32 L 34 36 L 36 36 L 36 33 L 49 33 A 1 1 0 0 0 50 32 L 50 28 L 48 28 z M 5 38 A 1 1 0 0 0 4 39 L 4 57 A 1 1 0 0 0 5 58 L 7 58 L 7 51 A 3.009 3.009 0 0 1 10 48 A 2.934 2.934 0 0 1 11.470703 48.390625 A 3 3 0 0 1 14 47 A 2.934 2.934 0 0 1 15.470703 47.390625 A 3 3 0 0 1 18 46 A 2.965 2.965 0 0 1 20 46.769531 A 2.965 2.965 0 0 1 22 46 A 3.009 3.009 0 0 1 25 49 L 25 53.269531 L 25.130859 53.039062 A 3.0016662 3.0016662 0 0 1 30.330078 56.039062 L 29.199219 58 L 34.800781 58 L 33.669922 56.039062 A 3.0016662 3.0016662 0 0 1 38.869141 53.039062 L 39 53.269531 L 39 49 A 3.009 3.009 0 0 1 42 46 A 2.965 2.965 0 0 1 44 46.769531 A 2.965 2.965 0 0 1 46 46 A 3 3 0 0 1 48.529297 47.390625 A 2.934 2.934 0 0 1 50 47 A 3 3 0 0 1 52.529297 48.390625 A 2.934 2.934 0 0 1 54 48 A 3.009 3.009 0 0 1 57 51 L 57 58 L 59 58 A 1 1 0 0 0 60 57 L 60 39 A 1 1 0 0 0 59 38 L 5 38 z M 9 40 L 11 40 L 11 42 L 9 42 L 9 40 z M 13 40 L 15 40 L 15 42 L 13 42 L 13 40 z M 17 40 L 19 40 L 19 42 L 17 42 L 17 40 z M 21 40 L 23 40 L 23 42 L 21 42 L 21 40 z M 25 40 L 27 40 L 27 42 L 25 42 L 25 40 z M 29 40 L 31 40 L 31 42 L 29 42 L 29 40 z M 33 40 L 35 40 L 35 42 L 33 42 L 33 40 z M 37 40 L 39 40 L 39 42 L 37 42 L 37 40 z M 41 40 L 43 40 L 43 42 L 41 42 L 41 40 z M 45 40 L 47 40 L 47 42 L 45 42 L 45 40 z M 49 40 L 51 40 L 51 42 L 49 42 L 49 40 z M 53 40 L 55 40 L 55 42 L 53 42 L 53 40 z M 9 44 L 11 44 L 11 46 L 9 46 L 9 44 z M 13 44 L 15 44 L 15 46 L 13 46 L 13 44 z M 25 44 L 27 44 L 27 46 L 25 46 L 25 44 z M 29 44 L 31 44 L 31 46 L 29 46 L 29 44 z M 33 44 L 35 44 L 35 46 L 33 46 L 33 44 z M 37 44 L 39 44 L 39 46 L 37 46 L 37 44 z M 49 44 L 51 44 L 51 46 L 49 46 L 49 44 z M 53 44 L 55 44 L 55 46 L 53 46 L 53 44 z M 18.029297 48 A 1 1 0 0 0 17 49 L 17 54 A 1 1 0 0 1 15 54 L 15 50 A 1 1 0 0 0 13 50 L 13 54 A 1 1 0 0 1 11 54 L 11 51 A 1 1 0 0 0 9 51 L 9 61 L 25.160156 61 L 28.599609 55.039062 A 1.01 1.01 0 0 0 28.230469 53.669922 A 0.99 0.99 0 0 0 26.869141 54.039062 L 24.869141 57.5 A 1.022 1.022 0 0 1 23.740234 57.970703 A 1 1 0 0 1 23 57 L 23 49 A 1 1 0 0 0 21 49 L 21 54 A 1 1 0 0 1 19 54 L 19 49 A 1 1 0 0 0 18.029297 48 z M 29 48 L 31 48 L 31 50 L 29 50 L 29 48 z M 33 48 L 35 48 L 35 50 L 33 50 L 33 48 z M 42.029297 48 A 1 1 0 0 0 41 49 L 41 57 A 1 1 0 0 1 40.259766 57.970703 A 1.022 1.022 0 0 1 39.130859 57.5 L 37.130859 54.039062 A 0.99 0.99 0 0 0 35.769531 53.669922 A 1.01 1.01 0 0 0 35.400391 55.039062 L 38.839844 61 L 55 61 L 55 51 A 1 1 0 0 0 53 51 L 53 54 A 1 1 0 0 1 51 54 L 51 50 A 1 1 0 0 0 49 50 L 49 54 A 1 1 0 0 1 47 54 L 47 49 A 1 1 0 0 0 45 49 L 45 54 A 1 1 0 0 1 43 54 L 43 49 A 1 1 0 0 0 42.029297 48 z"/></svg>