<svg xmlns="http://www.w3.org/2000/svg" xmlns:xlink="http://www.w3.org/1999/xlink" viewBox="0,0,256,256" width="128px" height="128px"><g fill="#757575" fill-rule="nonzero" stroke="none" stroke-width="1" stroke-linecap="butt" stroke-linejoin="miter" stroke-miterlimit="10" stroke-dasharray="" stroke-dashoffset="0" font-family="none" font-weight="none" font-size="none" text-anchor="none" style="mix-blend-mode: normal"><path d="M0,256v-256h256v256z" id="bgRectangle"></path></g><g fill="#000000" fill-rule="nonzero" stroke="none" stroke-width="1" stroke-linecap="butt" stroke-linejoin="miter" stroke-miterlimit="10" stroke-dasharray="" stroke-dashoffset="0" font-family="none" font-weight="none" font-size="none" text-anchor="none" style="mix-blend-mode: normal"><g transform="scale(4,4)"><path d="M27,7c-0.55,0 -1,0.45 -1,1v7h-15c-0.55,0 -1,0.45 -1,1v7h-7c-0.55,0 -1,0.45 -1,1v7h-0.67773c-0.467,0 -0.87256,0.3233 -0.97656,0.7793c-0.075,0.333 -1.78384,8.22345 3.03516,14.81445c3.492,4.775 9.45003,7.55758 17.70703,8.26758c1.082,0.094 2.12748,0.13867 3.14648,0.13867c19.937,0 27.93156,-17.07278 29.47656,-20.92578c7.84,0.627 10.20452,-5.67328 10.22852,-5.73828c0.14,-0.389 0.02494,-0.8257 -0.28906,-1.0957c-3.079,-2.65 -6.11127,-2.69783 -8.19727,-2.04883c0.211,-4.581 -4.59703,-7.86348 -4.83203,-8.02148c-0.221,-0.149 -0.49295,-0.20339 -0.75195,-0.15039c-0.261,0.052 -0.48972,0.20378 -0.63672,0.42578c-4.087,6.157 -2.44689,10.63572 -1.46289,12.38672c-1.58,1.201 -3.62087,1.17097 -3.67187,1.16797h-0.09766v-7c0,-0.55 -0.45,-1 -1,-1h-7v-15c0,-0.55 -0.45,-1 -1,-1zM28,9h6v6h-6zM12,17h14v6h-6v-3c0,-0.552 -0.448,-1 -1,-1c-0.552,0 -1,0.448 -1,1v3h-6zM28,17h6v14h-6v-6h3c0.55,0 1,-0.45 1,-1c0,-0.55 -0.45,-1 -1,-1h-3zM50.33008,19.46875c1.413,1.214 4.04111,4.00816 2.78711,7.16016c-0.166,0.417 -0.03083,0.89206 0.32617,1.16406c0.357,0.272 0.85589,0.26905 1.21289,-0.00195c0.136,-0.103 3.22152,-2.37491 7.10352,0.49609c-0.763,1.379 -3.11122,4.4527 -8.57422,3.7207c-0.483,-0.065 -0.93398,0.22073 -1.08398,0.67773c-0.07,0.213 -6.93863,20.3145 -27.89062,20.3125c-0.953,-0.001 -1.93917,-0.04191 -2.95117,-0.12891c-7.646,-0.658 -13.11395,-3.16145 -16.25195,-7.43945c-3.462,-4.72 -3.10989,-10.38669 -2.83789,-12.42969h0.83008h40c0.00691,0 0.01266,-0.00377 0.01953,-0.00391h1.04883c0.147,0.006 3.50928,0.07964 5.73828,-2.31836c0.342,-0.367 0.35711,-0.93136 0.03711,-1.31836c-0.033,-0.039 -3.04067,-3.79863 0.48633,-9.89062zM4,25h6v6h-6zM12,25h6v6h-6zM20,25h6v6h-6zM36,25h6v6h-6zM12.5,38c-1.38071,0 -2.5,1.11929 -2.5,2.5c0,1.38071 1.11929,2.5 2.5,2.5c1.38071,0 2.5,-1.11929 2.5,-2.5c0,-1.38071 -1.11929,-2.5 -2.5,-2.5zM42.28711,38.50977c-0.25512,0.02125 -0.50314,0.13961 -0.68164,0.34961c-0.357,0.422 -0.30381,1.05316 0.11719,1.41016l1.52344,1.29492c0.188,0.159 0.41748,0.23633 0.64648,0.23633c0.284,0 0.56467,-0.12051 0.76367,-0.35352c0.357,-0.422 0.30577,-1.05316 -0.11523,-1.41016l-1.52539,-1.29297c-0.211,-0.179 -0.47339,-0.25563 -0.72852,-0.23437zM39.00977,41.9082c-0.2545,-0.02663 -0.51842,0.04475 -0.73242,0.21875c-0.429,0.347 -0.49448,0.9753 -0.14648,1.4043l1.25781,1.55469c0.197,0.245 0.48634,0.37109 0.77734,0.37109c0.221,0 0.44291,-0.07361 0.62891,-0.22461c0.429,-0.347 0.49448,-0.97725 0.14648,-1.40625l-1.25781,-1.55273c-0.174,-0.2145 -0.41933,-0.33861 -0.67383,-0.36523zM34.79492,44.53906c-0.12955,0.00919 -0.25981,0.04442 -0.38281,0.10742c-0.493,0.251 -0.6875,0.8537 -0.4375,1.3457l0.9082,1.7832c0.176,0.346 0.52663,0.54492 0.89063,0.54492c0.153,0 0.30813,-0.03442 0.45312,-0.10742c0.493,-0.251 0.6875,-0.8537 0.4375,-1.3457l-0.90625,-1.78125c-0.18825,-0.369 -0.57425,-0.57444 -0.96289,-0.54688zM30.50586,46.24609c-0.12844,-0.01917 -0.26298,-0.01277 -0.39648,0.02148c-0.535,0.138 -0.8548,0.6818 -0.7168,1.2168l0.5,1.9375c0.117,0.451 0.5218,0.75 0.9668,0.75c0.083,0 0.167,-0.00925 0.25,-0.03125c0.535,-0.138 0.85675,-0.68375 0.71875,-1.21875l-0.5,-1.9375c-0.1035,-0.4005 -0.43695,-0.68077 -0.82227,-0.73828zM25.53125,46.95117c-0.552,0.028 -0.97527,0.49683 -0.94727,1.04883l0.10156,1.99805c0.027,0.534 0.46905,0.94922 0.99805,0.94922c0.017,0 0.03378,-0.00195 0.05078,-0.00195c0.552,-0.028 0.97722,-0.49683 0.94922,-1.04883l-0.10352,-1.99805c-0.028,-0.552 -0.50683,-0.97227 -1.04883,-0.94727z"></path></g></g></svg>